<?xml version="1.0"?>
<svg xmlns="http://www.w3.org/2000/svg" xmlns:xlink="http://www.w3.org/1999/xlink" xmlns:svgjs="http://svgjs.com/svgjs" version="1.1" width="512" height="512" x="0" y="0" viewBox="0 0 511.287 511.287" style="enable-background:new 0 0 512 512" xml:space="preserve" class=""><g><path xmlns="http://www.w3.org/2000/svg" d="m379.574 21.134c-17.585 17.585-40.879 28.144-65.526 29.881 5.644 6.344 8.66 14.758 8.189 23.387v10.366c0 2.958-1.925 5.469-4.586 6.361l-4.233 11.685h2.107c9.95 0 18.046-8.095 18.046-18.046v-9.948c17.249 4.646 33.151 13.741 46.003 26.592 6.194 6.194 17.071 2.074 17.071-7.34v-65.64c0-9.368-10.886-13.48-17.071-7.298z" fill="#3d488f" data-original="#000000" style="" class=""/><path xmlns="http://www.w3.org/2000/svg" d="m228.92 71.274h26.791l3.515-9.701c2.836-7.828 8.368-13.897 15.167-17.551v-.464c0-3.13-2.537-5.667-5.667-5.667s-5.667 2.537-5.667 5.667v7.716h-5.666v-7.716c0-3.13-2.537-5.667-5.667-5.667s-5.667 2.537-5.667 5.667v7.716h-16.796c-5.326 0-9.977 4.02-10.321 9.335-.378 5.824 4.235 10.665 9.978 10.665z" fill="#3d488f" data-original="#000000" style="" class=""/><circle xmlns="http://www.w3.org/2000/svg" cx="172.695" cy="45.244" r="45.244" fill="#3d488f" data-original="#000000" style="" class=""/><path xmlns="http://www.w3.org/2000/svg" d="m297.042 52.603c-11.065-4.009-23.289 1.711-27.299 12.779l-22.792 62.914-37.117-7.401 17.195.004c-5.024-9.998-15.367-16.863-27.319-16.863h-54.505c-16.88 0-30.564 13.684-30.564 30.564l.01 350.487c0 14.468 11.729 26.197 26.196 26.197s26.196-11.729 26.196-26.197v-193.673h8.838l28.778 78.459 15.077 118.521c1.832 14.394 14.978 24.502 29.293 22.681 14.353-1.826 24.508-14.941 22.682-29.293l-15.451-121.458c-.248-1.951-.716-3.868-1.393-5.715l-24.595-67.056v-112.91l-28.777-11.944c58.386 11.497 55.528 11.398 59.265 11.398 8.816 0 16.925-5.493 20.027-14.056l29.032-80.139c4.012-11.068-1.71-23.29-12.777-27.299z" fill="#3d488f" data-original="#000000" style="" class=""/></g></svg>
